<?xml version="1.0" encoding="utf-8"?>
<!-- Generator: Adobe Illustrator 28.2.0, SVG Export Plug-In . SVG Version: 6.00 Build 0)  -->
<svg version="1.1" id="Layer_1" xmlns="http://www.w3.org/2000/svg" xmlns:xlink="http://www.w3.org/1999/xlink" x="0px" y="0px"
	 viewBox="0 0 278 289" style="enable-background:new 0 0 278 289;" xml:space="preserve">
<style type="text/css">
	.st0{fill:#39B559;}
	.st1{fill:#37B559;}
	.st2{fill:#ED3B3A;}
	.st3{fill:#ED3B3D;}
	.st4{fill:#39B45B;}
	.st5{fill:#769BD1;}
	.st6{fill:#FAD127;}
	.st7{fill:#7B7A7B;}
	.st8{fill:#7A7979;}
	.st9{fill:#7B7A7A;}
	.st10{fill:#EE3B3C;}
	.st11{fill:#F9D12B;}
	.st12{fill:#EA3F3B;}
	.st13{fill:#7B7B7B;}
	.st14{fill:#7A9CD1;}
	.st15{fill:#3DB258;}
	.st16{fill:#EF3940;}
	.st17{fill:#EC3C3D;}
	.st18{fill:#EB3A40;}
	.st19{fill:#7C7C7C;}
	.st20{fill:#F7D222;}
	.st21{fill:#EA3C3B;}
	.st22{fill:#7D7D7D;}
	.st23{fill:#3DB255;}
	.st24{fill:#FAD131;}
	.st25{fill:#DE3636;}
	.st26{fill:#EF393F;}
	.st27{fill:#7D7C7C;}
	.st28{fill:#FCCE2E;}
	.st29{fill:#F0CF6A;}
	.st30{fill:#7F7E7E;}
	.st31{fill:#6588C5;}
	.st32{fill:#757977;}
	.st33{fill:#7393CC;}
	.st34{fill:#D23235;}
	.st35{fill:#EA3E3F;}
	.st36{fill:#6F6F6F;}
	.st37{fill:#48AD5E;}
	.st38{fill:#D4363A;}
	.st39{fill:#30B250;}
	.st40{fill:#3BB256;}
	.st41{fill:#3CB258;}
	.st42{fill:#E63E3B;}
	.st43{fill:#49B25A;}
	.st44{fill:#32AC57;}
	.st45{fill:#EA3E33;}
	.st46{fill:#37B452;}
	.st47{fill:#F4D12E;}
	.st48{fill:#E34447;}
	.st49{fill:#747474;}
	.st50{fill:#777777;}
	.st51{fill:#6F7271;}
	.st52{fill:#3BB451;}
	.st53{fill:#FCC226;}
	.st54{fill:#43B25F;}
	.st55{fill:#3DB352;}
	.st56{fill:#E93933;}
	.st57{fill:#747373;}
	.st58{fill:#D13333;}
	.st59{fill:#7893CB;}
	.st60{fill:#707070;}
	.st61{fill:#439C59;}
	.st62{fill:#EA3F42;}
	.st63{fill:#2AA64C;}
	.st64{fill:#2DA84E;}
	.st65{fill:#E34543;}
	.st66{fill:#E6443A;}
	.st67{fill:#34A04D;}
	.st68{fill:#708EC8;}
	.st69{fill:#767676;}
	.st70{fill:#EC3A40;}
	.st71{fill:#DD433B;}
	.st72{fill:#E12D32;}
	.st73{fill:#DD3535;}
	.st74{fill:#E33E34;}
	.st75{fill:#EE3945;}
	.st76{fill:#F1D883;}
	.st77{fill:#F5D474;}
	.st78{fill:#5CA669;}
	.st79{fill:#727071;}
	.st80{fill:#727272;}
	.st81{fill:#706D6B;}
	.st82{fill:#38A957;}
	.st83{fill:#6F6F6E;}
	.st84{fill:#CC3831;}
	.st85{fill:#6E6C6D;}
	.st86{fill:#3AB451;}
	.st87{fill:#34B45D;}
	.st88{fill:#38B554;}
	.st89{fill:#2AA752;}
	.st90{fill:#EC3B36;}
	.st91{fill:#ED302B;}
	.st92{fill:#E93632;}
	.st93{fill:#EE3A37;}
	.st94{fill:#E43030;}
	.st95{fill:#39B554;}
	.st96{fill:#2AAA51;}
	.st97{fill:#F8D322;}
	.st98{fill:#EE3A39;}
	.st99{fill:#ED3A38;}
	.st100{fill:#EE3844;}
	.st101{fill:#6D6D6D;}
	.st102{fill:#737373;}
	.st103{fill:#EC3D37;}
	.st104{fill:#FDCF29;}
	.st105{fill:#F9CF21;}
	.st106{fill:#F8D321;}
	.st107{fill:#E62C2B;}
	.st108{fill:#EE3B37;}
	.st109{fill:#ED3936;}
	.st110{fill:#ED3B36;}
</style>
<g>
	<g>
		<path class="st0" d="M233.6,97.5c3.5-6.6,5.2-13.9,8.4-20.6c0.5-1.1,1-2.2,1.6-3.2c1.2-1.8,2.9-1.7,4.8-1.2c1.5,1.7,0,4.3,1.8,5.9
			c-3.8,9.5-7.7,19-11.5,28.6c-2.3,5.7-4.3,11.5-7.1,17c-2.2,2.2-5.1,1-7.7,1.4c-1,0.2-0.7-1.3-0.4-2.2v0c1.7-2.9,3-5.9,3.7-9.3
			c3.2-4.7,1.4-9.1-0.7-13.5c0.5-1.1,1.2-1,1.7-0.2c0.7,1,1.5,2.1,2,3.2c-2.6-3.7-4-7.7-5.1-12c-0.2-0.8-1.2,1.3-2.2,0.4
			c-2.2-5.2-4.4-10.5-6.6-15.8c-2-4.8-2-4.9,3.1-4.7c1.3,0,3.1-1.1,3.9,1c-1.9,0.7-3.8,0.2-5.7,0.4c2.1,0,4.1-0.3,6.2,0.2
			c1,2.1,2,4.2,2.5,6.5c0.4,0.9-0.7,1.6-0.4,2.6c0.4-0.3,0.5-0.9,1-1.1c2.6,5,4.1,10.3,5.9,15.6c-0.1,0.6-0.7,1.3,0,1.9
			C233,98.4,233.3,97.7,233.6,97.5z"/>
		<path class="st1" d="M210.1,79c-1.9,1.4-4,0.5-6,0.6c-1.9,0.1-2.8,0.5-2.7,2.6c0.1,4.6,0,9.3,0,13.9c0,2.2,0.6,4.2,2.5,5.6
			c1.2,0.8,2.5,0.4,3.8,0.3c1.4-0.1,1.9,0.6,2.3,1.7c0.5,6.5-1.2,7.9-7.7,6.2c-0.3-0.1-0.6-0.2-1-0.3c-0.6-0.6-1.6-0.6-2.1-1.3
			c-3.7-1.7-5.8-4.5-5.8-8.7c0.1-6.7,0.6-13.4-0.3-20l0,0.1c-1.1-1.2-2.6-1-4-0.8c-2.4,0.4-3.3-0.5-3-2.8c0.1-1.3-0.1-2.6,0.3-3.8
			c1-2.3,2.9-0.9,4.4-1.1c1.6-0.2,2.5-0.5,2.3-2.3c-0.1-1.2-0.1-2.4,0-3.7c0.1-1.6-0.8-4.1,0.5-4.7c1.9-0.8,4.3-0.3,6.5-0.3
			c1.1,0,1.1,0.9,1.1,1.7c0,1.9-0.1,3.8-0.1,5.7c-0.6,1-0.2,2.1-0.3,3.1c0,2.4,1.6,1.8,2.9,1.6c1.5-0.2,2.9-0.2,4.2,0.6
			c0.7,0.5,0.8,1.3,0.4,2C207.4,76.9,208.5,78,210.1,79L210.1,79z"/>
		<path class="st2" d="M51.8,73c0,0.4,0,0.9,0,1.3c-0.4,0.5-0.6,0.9,0,1.4c0.3,0.5-0.2,1.9,1.2,1.2c1.1-0.7,2.9,0.5,3.5-1.4
			c0.3-0.3,0.7-0.4,1.1-0.6c0.9-0.2,1.6-0.9,2.5-1c1.4-0.2,2.9-0.7,4.2-0.1c1.4,0.6,3.5,1.1,1.6,3.4c-1.1,0.2-2.2-0.5-3.2,0.2
			c-0.9,0-1.2,0.7-1.7,1.3c-1.4,0.3-2.9-1-4.1,0.5c-0.5,0.3-0.9,0.7-1.5,0.8c-0.3,0.3-1.7-1-1.1,0.7c0,0.4-0.1,0.8-0.2,1.2l0,0
			c-0.9,0.3-1.4,1-1.2,2c-1.3,6.8-0.5,13.7-0.7,20.6c0,1.3-0.1,2.7-0.2,4c-1.4,1.2-3,0.8-4.6,0.5c-1.2-1-1.5-2.5-1.5-3.9
			c-0.1-4.5-1.5-8.7-1.8-13.1c-0.3-6.5-0.2-12.9,0-19.4c0.5-0.6,1.2-0.7,1.9-0.6c1.7,0.5,3.5,0.1,5.1,0.6
			C51.3,72.5,51.6,72.7,51.8,73L51.8,73z"/>
		<path class="st3" d="M108.3,72.2c1.2,2,0.2,4.1,0.5,6.1c0.2,1.4-0.9,1.2-1.8,1.3c-2.7,0-5.3,0-8,0c-0.9,1.1-0.4,2.3-0.4,3.5
			c-0.2,8.4,0.3,16.8-0.3,25.2c-1.6,1.1-3.4,0.3-5.1,0.4c-1.1,0.1-1.5-1.1-1.7-2.1c-0.2-1.5-0.1-3.1-0.2-4.6c0-6.9,0-13.8-0.6-20.7
			c-0.2-2.2,0.8-4.5,1.1-6.8c0.3-0.5,0.7-0.7,1.2-0.7c0.9-0.1,1.8,2.3,2.6,0c1.6-1,0.5-3.7,2.6-4.4c0.4,0.3,0.4,0.8,0.4,1.3
			c0.3,2.1,0.4,2.1,2.2,1.4c2.5-1.6,5-1.7,7.5,0c-1.5,0.8-3.2,0.2-4.8,0.4C105.1,72.4,106.7,73.1,108.3,72.2L108.3,72.2z"/>
		<path class="st4" d="M172.6,90.7c0-5.5,0.1-10.9,0-16.4c0-2.5,1.1-3.3,3.4-3.2c2.2,0.1,4.7-0.4,4.7,3c0,11.2,0,22.5,0,33.7
			c0,1.5-0.7,1.8-2,1.8c-7.4-0.1-5.8,0.7-6-5.6c-0.1-2.2,0-4.5,0-6.7C172.6,95.1,172.6,92.9,172.6,90.7L172.6,90.7L172.6,90.7z"/>
		<path class="st5" d="M116.1,72.2c1.9-2.3,4.6-1.3,6.6-0.9c1.9,0.4,0.7,2.8,0.9,4.3c-0.6,8-0.2,16.1-0.3,24.2
			c0,2.6-0.4,5.3,0.3,7.9c0,0.3,0.1,0.7,0,1c-1.1,1.7-6.6,1.5-7.9-0.3c0.5-9.1,0.1-18.2,0.2-27.3c0-2.3,0-4.7,0-7
			c0.7-2.8,2.7-1,4.1-1.4C118.9,72.2,117.3,73.1,116.1,72.2L116.1,72.2z"/>
		<path class="st6" d="M155.9,72c1.8,0.8,3.5,2,4.7,3.6c-0.6,0.8-1.6,1.4-2.6,1.7c2,2,2.7,4.9,2.8,7.7c0.2,2.8-0.1,5.6,0.4,8.3
			c0.1-4.6,0.2-9.2-1.3-13.5c-0.4-1-0.7-2.5,0.3-2.9c0.6-0.3,1.4,0.2,1.8,0.7c1.8,1.9,1.9,4.8,1.9,7.5c0,7,0,14,0,21
			c0,0.5,0,1.1-0.3,1.5c-0.5,0.9-1.7,1-2.7,1.1c-1.4,0.1-3.2,0-3.9-1.3c-0.3-0.5-0.3-1.2-0.3-1.8c0-4.8,0-9.5,0-14.3
			c0-2.1,0-4.3-0.5-6.3c-0.5-2-1.7-4-3.5-5.1c-2.5-1.5-9.1-0.4-10.6-2.8c-2-3.1,6.5-5.9,8.6-6C152.5,71,154.3,71.3,155.9,72z"/>
		<path class="st7" d="M93.6,125.9c1.1-4.1,3.8-6.2,8-6.6c1.1,0.4,2.2,0.3,3.3,0c3.1,0.5,5.5,2.1,7.3,4.6c0.4,0.6,1.5,1.6,0.4,2.2
			c-1,0.5-2.2,1.9-3.5,0.3c-0.7-0.8-1.4-1.7-2.1-2.5c0.3-0.6-0.3-0.9-1.9-0.8c-2.8,0-5.8-0.5-7.4,2.8c-0.6,1.1-0.6,2.2,0,3.3
			c2.2,3.7,6.4,4.2,9.7,5.6c4.1,1.7,6.5,4.2,6.6,8.4c0.1,4.8-2.4,7.9-7.1,9.2c-0.5-0.2-1-0.5-1.5-0.7c-1.2-0.1-2.4-0.4-3.4-1.3
			c-0.4-0.4-0.8-0.9-0.2-1.3c0.4-0.3,0.9,0,1.3,0.1c0.4,0,0.7,0,1.1,0c0.7,0.1,1.5,0.1,2.1-0.5c2.4-1.4,3.7-3.5,3.3-6.3
			c-0.4-2.7-2.9-3.5-4.9-4.4c-2.1-1-4.4-1.6-6.5-2.5c-2.4-1.1-4.2-2.9-4.5-5.7C93.9,128.5,93.9,127.2,93.6,125.9L93.6,125.9z"/>
		<path class="st3" d="M68.7,72.2c2.2,0.8,4.2,1.8,5.3,4c0.3,0.8,0.7,1.5,1.5,1.9h0c0.8,2.1-0.5,4.1-0.1,6.1c-0.3,0.5,0.5,0.2,0,0.2
			c-0.1,0,0-0.1,0-0.3c0.1-0.4,0.3-0.9,0.7-1c0.9-0.2,0.8,0.5,0.9,1c0.1,0.7,0,1.3,0,2c-0.2,7.5,0.3,15-0.3,22.4
			c-0.2,0.1-0.4,0.3-0.6,0.4c-6.6,1.1-7.1,0.6-7.2-6c-0.1-6,0.3-12-0.3-17.9c-0.5-2.2-1.6-4-3.4-5.4c-0.4-0.4-0.4-0.8-0.2-1.3
			c2.7-1.3,2.8-1.7,0.9-3.8c-0.5-0.6-1.2-1-1-1.9c0.3-0.7,1-0.9,1.7-0.9C67.5,71.6,68.2,71.8,68.7,72.2L68.7,72.2z"/>
		<path class="st8" d="M217.4,151.3c-0.1-3.7-0.1-7.3-0.2-11c-0.1-3-0.3-6.1-4.3-6.8c-3.7-0.6-5.5,1.6-6.8,4.4
			c-0.8,3.8-0.4,7.5-0.1,11.3c0.4,1.9-0.1,2.9-2.3,3c-2.4,0.1-1.5-1.6-1.6-2.8c-0.1-0.5,0.1-1.1,0.1-1.6c0.6-6.3,0.1-12.6,0.2-18.8
			c1.2-1,1.3-0.3,1.2,0.8c0.4-0.5,0-1,0-1.5c-0.2-1.2-0.6-2.9,0.9-3c1.3-0.1,0.7,1.7,1.1,2.7c0.6,1.4-0.3,3,0.7,4.3
			c1.5-0.9,2.7-2.3,4.6-2.6c6.2-1,9.3,1,10.2,7.3c0.7,4.9,1,9.8-0.1,14.8C219.8,151,218.5,151.9,217.4,151.3L217.4,151.3z"/>
		<path class="st9" d="M137.4,138c-0.6-3.6-3.1-6.9-6.5-8.1c-4.5-1.6-9.9,0.6-12.1,4.8c-1,2-1.4,4.3-1.3,6.6c0,3.8,1.3,8,4.8,9.7
			c0.3,0.1,0.6,0.2,0.8,0.1c0.4-0.2,0.5-0.7,0.4-1.1c-0.1-1.6-0.4-3.2-1.1-4.7c-0.3-0.8-0.8-1.6-0.6-2.5c0.3-1.6,2.8-1.1,4-1.1
			c3.8-0.1,7.8,0.7,11.5-0.5C137.6,140.1,137.6,139,137.4,138z M132.1,137.7c-0.2,0.8-0.7,1.5-1.4,1.9c-1.5,1-3.5,0.8-5.1-0.1
			c-3.2-1.8-1.6-4.7,1.4-5.5c1.6-0.4,3.5-0.4,4.6,0.9C132.3,135.7,132.4,136.8,132.1,137.7z"/>
		<path class="st8" d="M155.3,130.7c0.8-0.1,1.7,0.4,2.2,1c2.3,2.2,2.4,5.8,2.4,8.9c0,2.5,0,5,0,7.6c0,1.2,0,2.5-0.8,3.4
			c-0.7,0.9-2.5,1.1-3,0.1c-0.2-0.5-0.4-1.2-0.9-1.1c-0.2,0-0.4,0.3-0.6,0.4c-0.7,0.6-1.9-0.1-2.1-1c-0.2-0.9,0.3-1.8,0.9-2.6
			c0.5-0.8,1.2-1.5,1.3-2.5c0.2-1.4-0.8-2.7-2.2-3.2c-1.3-0.4-2.8,0-3.9,0.8c-1.1,0.8-2,2-2.6,3.2c-0.1,0.2-0.2,0.5-0.2,0.7
			c0.1,0.3,0.4,0.5,0.7,0.7c0.8,0.5,1.5,1.3,1.8,2.3s-0.1,2.1-1,2.6c-1.1,0.6-2.5,0-3.4-0.8c-3.9-3.4-2.8-10,1.8-12.2
			c2.6-1.2,5.5-1.2,8.4-0.9c0.5,0.1,1.1,0.1,1.5-0.3c0.2-0.2,0.2-0.5,0.2-0.7c0-1.1-0.7-2-1.3-2.9c-0.6-0.9-0.9-2.2-0.2-3
			C154.6,130.8,154.9,130.7,155.3,130.7z"/>
		<path class="st10" d="M34.3,57.5c0,16.7,0,33.5,0,50.2c-2,1.2-2.9,0.2-3.3-1.6c-0.2-1.1-0.1-2.2-0.2-3.3c0-11.6,0-23.2,0-34.8
			c0-1.5,0.2-3.1-0.4-4.6c-1.2-0.9-0.7-2.1-0.7-3.2c0,0,0.1,0,0,0c-0.1,0.1-0.3,0.3-0.4,0.4c-0.7,0.2-1.3,0.1-1.8-0.4
			c-0.6-1.5-1.5-3,0.4-4.3C30.1,56.3,32.8,54.5,34.3,57.5L34.3,57.5z"/>
		<path class="st11" d="M139.8,85.2c0,7.1-0.2,14.2-0.1,21.4c0,2.5-0.7,3.2-3.2,3.2c-5.4-0.2-5.4,0-5.4-5.5c0-9.6,0-19.1,0-28.7
			c0-1-0.5-2.2,0.5-3.1c0.2,0.2,0.4,0.4,0.6,0.6c0.4,0.6,0.4,1.2,0.4,1.8c-0.1,0.9-0.1,1.7-0.1,2.6c0,8.3,0,16.7,0,25
			c0,1.3-0.2,2.7,0.4,3.9c1.4,0.7,1-0.5,1-1.1c0-3.8,0-7.5,0-11.3c0-1.2-0.1-2.4,0.3-3.6c0.5-0.9,1.4-1.6,1.2-2.9
			c-0.2-2.1,0.8-3.5,2.9-4C139.5,83.7,140.1,84.1,139.8,85.2L139.8,85.2z"/>
		<path class="st12" d="M92.1,74.3c-0.4,2.1,1.6,4.7-1.3,6.5c-0.4,0.2,0.1,1.2,0.6,1.8c0.4,0.4,1.1,1.1,1,1.2
			c-2.6,3.2,0.4,6.6-0.2,9.9c-0.6,3.5-0.1,7.1-0.1,10.7c0,2.4-0.5,5,3.5,3.6c0.5-0.2,1.3,0.4,1.9,0.6c0.4,0.4,0.4,0.7,0,1
			c-4.8,0.4-7.2-1.8-7.2-6.5c0-6.9,0-13.8,0-20.8c0-1.4,0.1-2.7-2-2.7c-1.7,0-4.2,1-5-0.6c-0.9-1.9-0.8-4.5,0.1-6.7
			c0.2,0,0.3,0,0.5,0c1.1-0.1,2.2-0.1,3.1,0.7c0.8,1.1,0.5,2.7,1.7,3.9c0.5-1.2-0.3-2.9,1.3-3.5C90.9,72.9,91.7,73.2,92.1,74.3
			L92.1,74.3z"/>
		<path class="st9" d="M182.5,138.5c-0.1,2.3-0.2,4.6,1,6.8c2.4,4.6,7.5,5.1,10.5,1c1.2-1.6,1.9-1.3,3.5-0.3
			c2.1,1.4,0.5,2.1-0.1,2.9c-3,3.8-8.7,5-13,2.9c-5.1-2.6-7.4-7.6-5.9-13.4c0.7,0,1,0.7,1.6,1.1c-0.6-1.2-0.8-2.4-0.2-3.6
			c0.3-0.2,0.5-0.2,0.8-0.2C182.1,136.2,181.9,137.6,182.5,138.5L182.5,138.5z"/>
		<path class="st13" d="M168.7,133.1c1.5-2.3,3.4-3.7,6.3-3.4c1.3,0.1,2.2,0.4,2.1,1.9c-0.1,1.3-0.1,2.2-1.9,2.4
			c-5,0.4-6.6,2.2-6.6,7.2c-0.1,2.9,0,5.8,0,8.7c0,0.8,0.6,2.1-0.5,2.3c-1.1,0.2-2.6,1-3.4-0.8c1.1-1.9,0-3.8,0.1-5.8
			c0.2-4.2,0-8.4,0.1-12.7c0-0.8-0.5-2,0.6-2.3c1-0.3,1.6,0.6,2.1,1.4C167.9,132.4,168.2,132.9,168.7,133.1L168.7,133.1z"/>
		<path class="st14" d="M120.9,55.7c4.1,2.2,5.3,5.1,3.3,8.2c-1.2,1.8-3,2.6-5.1,2.4c-2.2-0.2-3.7-1.4-4.4-3.5
			c-0.8-2.3-0.3-4.3,1.7-5.9C118.1,57.3,119.3,55.8,120.9,55.7L120.9,55.7z"/>
		<path class="st15" d="M172.1,63.5c-1.5-3.4-0.6-6.1,2.6-7.6c2.5-1.1,5.1-0.2,6.4,2.3c1.6,2.9,0.7,5.6-2.3,7.4
			C176.1,66.4,174.1,65,172.1,63.5L172.1,63.5z"/>
		<path class="st16" d="M29.8,62.2c2.6-0.1,2,1.9,2,3.3c0,13.1,0,26.1,0,39.2c0,1.9,0,3.4,2.6,3.1c0,0.6,0.3,1.6-0.5,1.7
			c-2.6,0.3-5.2,0.4-7.8-0.1c-0.1,0-0.1-0.6-0.1-0.9c0.5-0.7,1.3-1,2-1.2c0.3-0.2,0.6-0.3,0.9-0.5c1-1.2,0.6-2.5,0.6-3.8
			c0-9.2,0-18.4,0-27.5c0-3.4,0.4-6.8-0.2-10.1c-0.2-0.3-0.4-0.6-0.5-0.9c-0.2-0.5-0.2-1-0.1-1.5C28.9,62.4,29.2,62,29.8,62.2z"/>
		<path class="st17" d="M96.8,57c0.4-0.1,0.8-0.1,1.2-0.2c1-0.6,1.8,0.2,2.6,0.5c0.4,0.2,0-0.1,0.3,0.1c0.9,0.8,3.1,0.6,2.7,2.4
			c-0.3,1.4-2.1,1.5-3.4,1.6c-0.5,0-1,0.2-1.2,0.7c-0.1,0.3-0.3,0.5-0.4,0.7c-0.8,1.1-2.5,2.2-0.2,3.5c0.1,0.5,0.1,0.9-0.1,1.3
			c-0.4,0.8-1,1.5-1.2,2.4c-0.4,1.7-1.3,1-2.2,0.4c-0.4-0.8-0.7-1.6-1.4-2.1c-0.3-0.2-0.3-0.7-0.9-0.2c-0.4,0.4-0.7-0.3-0.8-0.8
			c0,0.5,0.1,0.9,0.5,1.2c0.9,0.6,2.2,0.6,2.6,1.8c0.2,2-1,2.7-2.7,2.8c-1-0.4-1.9-0.8-1.7-2.2c0.5-1.6-0.4-3.3,0.3-4.9
			c0.1-2.7,1.2-4.9,3.2-6.7C94.8,58.5,96.6,58.6,96.8,57L96.8,57z"/>
		<path class="st9" d="M180.1,134.6c2.6-6.3,14.3-6.7,17.6-0.6c0.4,0.7,1.6,1.5,0.1,2c-1,0.3-2,2.3-3.3,0.3
			c-0.8-1.3-2.1-1.9-3.3-2.8c-1.3-1.1-2.6-0.9-3.9,0c-2.3,0.8-3.7,2.4-4.7,4.5c-0.6-0.8-1.1-1.6-2-2.1
			C180.2,135.5,180.4,135,180.1,134.6L180.1,134.6z"/>
		<path class="st18" d="M27.8,56.2c-0.7,1.3,0.3,2.7,0,4c0.4,1.2,0.7,2.5,0.7,3.9c0.5,10.4,0.2,20.7,0.2,31.1c0,1.3,0.1,3.2-2.3,2.6
			C26,83.9,25.9,70,26.4,56.1c0.1-0.4,0.3-0.6,0.7-0.4C27.4,55.7,27.7,55.9,27.8,56.2L27.8,56.2z"/>
		<path class="st19" d="M103.1,149.2c-0.2,0.3-1.4-0.4-0.6,0.7c0.9,1.4,2.8,0.2,3.8,1.4c-1.7,1.8-4.1,0.4-6,1.1
			c-2.9-0.9-5.3-2.3-6.6-5.2c0.3-0.5,0.5-0.9-0.2-1.2c-0.6-1.1-1.9-2.1,0.4-2.9c1.6-0.6,2.7-0.8,3.2,1.2
			C97.8,147.4,100.3,148.6,103.1,149.2L103.1,149.2z"/>
		<path class="st20" d="M138.2,83.5c-0.1,0.1-0.1,0.2-0.2,0.2c-0.5,0.7-1,1.4-1.3,2.2c-0.4,1-0.5,2.1-0.1,3.1c0.1,0.3,0.2,0.7,0,0.9
			c-0.1,0.1-0.3,0.1-0.4,0.1c-0.6,0-1.2-0.5-1.5-1c-0.3-0.5-0.4-1.2-0.5-1.8c-0.4-3.3-0.3-6.7,0.2-10c0-0.3,0.1-0.5,0.3-0.8
			c0.4-0.5,1.1-0.4,1.7-0.3c-1.7-0.4,2.2-7.6,2.6-3.9c0.2,1.4,0,2.8-0.1,4.3c0,0.9,2.1,1.4,1.8,3C140.6,80.8,139,82.4,138.2,83.5z"
			/>
		<path class="st21" d="M99.5,60.9c1.4,0,2.6-0.4,4.1-1.3c-1.3-0.5-2.4-1-3.4-1.4c-0.3-1.6,2.1-1.1,2-2.6c0.9-0.4,1.8-0.3,2.7,0
			c1,0.6,2.3-0.1,3.4,0.6v0c0.8,1.7-0.3,3.4,0.2,5.1c0.2,0.7-0.3,1.2-1.2,1c-0.9-0.3-1.7,0.3-2.5,0.6c-1.2,0.3-2.5,0.6-3.7,0.9
			c-0.9,0.1-1.8,0.5-2.5-0.2c-0.2-0.5-0.2-0.9,0.2-1.2l0,0C99.2,61.8,99,61.2,99.5,60.9L99.5,60.9z"/>
		<path class="st22" d="M155.3,130.4c-0.6,0.4-0.6,1.3-0.4,2c0.2,0.7,0.4,1.2,0.2,1.9c-3.3-0.6-5.5-2.3-8.6,0.5
			c-1.5,1.3-2.5,0.5-3.4-0.4c-1.4-1.4,1.2-2.7,2.3-3.5c0.8-0.5,1.6-1.1,2.6-1c0.7,0,1.3,0.3,2,0.4c0.9,0.1,1.9-0.3,2.8-0.4
			C153.5,129.7,154.6,129.7,155.3,130.4z"/>
		<path class="st23" d="M222.8,91.7c1.9,0.4,0.2-3,2.5-2.3c2.2,0.6-0.8,2.6,1,3.5c1.5,0.8,0.4,2.8,1.3,4.2c0.9,1.6,1.2,3.4,2.9,4.7
			c0.7,0.6,1.1,1.9,0.5,3c-0.1,0.2-0.6,0.5-0.7,0.5c-1.1-0.5-1-1.6-1.3-2.5c-0.4-1.1-0.1-3.2-2.4-2.6
			C225.2,97.5,224,94.6,222.8,91.7z"/>
		<path class="st24" d="M157.2,107.8c2-0.1,4.4,0.6,5.8-0.4c1.3-0.9,0-3.4,0.2-5.2c0.4-5.4-0.1-10.7-0.2-16.1c0-1.4,0.8-3.3,0.9-5.1
			c0.9,1.2,0.6,2.6,0.6,3.8c0,7.9-0.1,15.7-0.1,23.6C161.9,109.1,159.4,110.3,157.2,107.8L157.2,107.8z"/>
		<path class="st25" d="M26.4,56.1c0,13.9,0,27.8,0,41.6c1.7,3.2,0.4,6.8,1.3,10.1c-0.4,0.7-1.1,0.6-1.8,0.7
			c-0.1-10.2-0.2-20.5-0.2-30.7c0-6.2,0-12.5,0-18.7C25.8,58.1,25.2,56.9,26.4,56.1L26.4,56.1z"/>
		<path class="st26" d="M44,91.7c2.2,5.3,2.7,11,3.2,16.6c-1.3,1.1-2.4,0.9-3.3-0.6C44,102.4,44,97,44,91.7L44,91.7z"/>
		<path class="st27" d="M130.1,149.1c1.1-0.8,2.6-1.1,3.5-2.4c0.7-1.1,1.8-1.1,2.6-0.3c0.6,0.7,1.1,1.6,0.1,2.6
			c-1.3,1.4-2.7,2.6-4.6,3.1c-2.1-0.3-4.3,1.1-6.2-0.6c0.8-1.2,1.9-0.5,2.7-0.4c0.5,0.2,0.1-0.7,0.2-0.3c0,0.1-0.1,0.1-0.3,0.1
			c-0.4,0-0.9,0.1-1.1-0.4c-0.2-0.5,0.1-0.7,0.6-0.9C128.4,149.4,129.5,150.2,130.1,149.1z"/>
		<path class="st28" d="M138.4,83.6c-1.1-1.1-1-2.5,0.3-3c3.1-1.2,1.1-2.6,0.4-4c1.6,0.6,1.5-1.5,2.6-1.6c0.2,0.1,0.3,0.3,0.2,0.4
			c-0.1,0.1-0.1,0.2-0.2,0.2c0,0.9,0.5,1.3,1.3,1.3c1.9,0.5,1.3,1.7,0.7,2.8c-1.8,1.5-3.1,3.3-4,5.4
			C139.6,84.5,139.1,83.9,138.4,83.6L138.4,83.6z"/>
		<path class="st29" d="M157.2,107.8c2.3,1.4,4.8,0.3,7.2,0.6c-1.7,3.1-4.5,1-6.7,1.2c-1.7,0.2-1.2-1.8-1.2-2.9c0-6.8,0-13.6,0-20.4
			c1.2,2.1,0.5,4.3,0.6,6.5C157.2,97.8,157.2,102.8,157.2,107.8L157.2,107.8z"/>
		<path class="st30" d="M168.7,133.1c-1.7,0.4-1.9-1.5-3.6-2.4c0.7,6.9-1,13.4,1.1,19.9c0.4,1.3-1,0.3-1.5,0.7c0-6-0.1-12-0.1-18.1
			c0-1.3-1-3.2,1.7-3.4C169.3,129.6,168.3,131.8,168.7,133.1z"/>
		<path class="st31" d="M116.3,73.6c0,10.5,0,21.1,0,31.6c0,1.1,0.4,2.2-0.5,3.2c0-11.6,0-23.2,0-34.7
			C115.9,73.3,116.1,73.3,116.3,73.6L116.3,73.6z"/>
		<path class="st32" d="M205.4,128.5c-1-0.6-0.3-1.8-1.2-2.9v5.6c-0.7-1.3-1.1-2-1.5-2.7c-0.5-2.9-0.5-5.7,0-8.6
			c1.1,0.1,2.4-0.8,3.3,0.6C205.2,123.1,206.3,125.9,205.4,128.5z"/>
		<path class="st33" d="M123.6,107.7c-0.7-0.6-0.6-1.4-0.6-2.2c0-9.3,0-18.5,0-27.8c0-0.8-0.1-1.6,0.6-2.2
			C123.6,86.3,123.6,97,123.6,107.7L123.6,107.7z"/>
		<path class="st34" d="M97.4,109.5c0-0.3,0-0.7,0-1c1.1-1,0.7-2.3,0.7-3.5c0-7.3,0-14.7,0-22c0-1.1-0.5-2.5,0.7-3.4
			c0,9,0,18-0.2,27C98.8,107.6,99.9,109.5,97.4,109.5L97.4,109.5z"/>
		<path class="st35" d="M66.7,72.3c-0.6,0-1.1,0.1-1.4,0.7c-0.7,0.5-1.4,0.2-2.1,0.1c-0.7,0-1.3-0.1-1.9,0.2c-0.6,0.2-0.3,1.5-1.4,1
			c-0.7,0.4-1,1.4-2,1.3c-0.6-0.7-1.7-0.9-1.9-2c3-2.9,6.7-3.2,10.5-2.6C67.1,71.4,67.1,71.8,66.7,72.3z"/>
		<path class="st36" d="M202.7,119.9c0,2.9,0,5.7,0,8.6c0,5.4,0,10.8,0,16.2c0,1.1,0.3,2.2-0.5,3.1c0-8.8-0.1-17.6-0.1-26.3
			C202.1,120.9,201.8,120.2,202.7,119.9z"/>
		<path class="st27" d="M153.1,148.7c0.9,0.7,0,1.9,0.7,2.6c-2.2,2.1-4.8,1.4-7.4,1.2c0-1,1-1.2,1.4-1.9c0.7-1.5,2.4-1.3,3.6-1.8
			C151.9,148.6,152.5,148.2,153.1,148.7z"/>
		<path class="st37" d="M244.3,72.2c1.1-1,6.8-1.8,7.5-0.9c1.2,1.6,0.4,3-0.9,4.2c-0.9-0.6-1.5-1.4-1.6-2.5
			C247.8,71.8,245.9,73.3,244.3,72.2z"/>
		<path class="st38" d="M77.4,108.4c-0.3,0-0.5,0-0.7-0.1c0-7.8,0-15.5,0.1-23.3c0.2-0.3,0.3-0.3,0.5,0
			C77.9,92.8,77.6,100.6,77.4,108.4L77.4,108.4z"/>
		<path class="st39" d="M203.4,72.9c-1.9,0.7-3,0.3-2.7-2c0.2-0.4,0.5-0.4,0.7,0c2.2,0.6,4.4,0.2,6.5,0.3c0.8,0,1.9-0.5,1.9,1
			C207.9,73.8,205.4,71.7,203.4,72.9L203.4,72.9z"/>
		<path class="st24" d="M160.5,81c-2.3-0.6-2.3-3.2-4.2-4.5c1.8,0.6,2.9-0.9,4.4-1c0.9,0.5,1.3,1.2,1.7,2.1
			c-0.8,0.8-1.6-0.3-2.3-0.2C160.2,78.6,160.4,79.8,160.5,81L160.5,81L160.5,81z"/>
		<path class="st40" d="M210.1,79c-3.3-0.6-3.6-1.3-2-5.4c0.3-1.6,1.2-1,2-0.6C210.4,75,210.5,77,210.1,79z"/>
		<path class="st41" d="M223.4,123.1c0.2,0.7,0.1,2.1,0.9,1.8c2.4-1.1,4.9-0.1,7.2-1c0.1,1.6-0.7,2.1-2.2,2c-1.5-0.1-3.1,0.1-4.6,0
			c-0.8,0-1.9,0.5-2.3-0.6C222.1,124.4,222.6,123.6,223.4,123.1z"/>
		<path class="st42" d="M77.3,85c-0.2,0-0.4,0-0.5,0c0-0.3,0-0.7-0.1-1c-0.4-0.9-0.5-0.3-0.6,0.2c-0.1,0.8-0.2,1.5-1.2,1.9
			c-0.8-2.7-0.3-5.3,0.6-7.9C77.1,80.2,77.2,82.6,77.3,85L77.3,85z"/>
		<path class="st43" d="M186.6,72.3c0.2,1,0.2,1.9,0.1,2.9c-0.3,2.3-0.1,4,3.1,2.9c1.3-0.4,2.9-0.1,3.5,1.6c-0.7,0-1.3-0.1-2-0.1
			C185.6,79.5,184.9,78.4,186.6,72.3z"/>
		<path class="st44" d="M193.2,79.6c0.2,0.2,0.6,0.5,0.6,0.7c0,6.4,0.7,12.9-0.3,19.3C193.4,93,193.3,86.3,193.2,79.6L193.2,79.6z"
			/>
		<path class="st45" d="M90.8,70.9c-0.1,1,0.9,1.3,1.4,2c-1.5,0.5-3.1,0.6-4.7,0.3c-1-1.2-2.5-0.3-3.7-0.8c-0.1-0.1-0.2-0.1-0.3-0.2
			c0.4-1.8,1.9-0.9,2.9-1c1.3-0.2,2.6-0.2,3.8-0.3C90.4,70.6,90.6,70.6,90.8,70.9z"/>
		<path class="st9" d="M130.1,149.1c-0.2,1.9-1.9,0.2-2.5,1.1c0.4,0.2,0.9,0.4,2.2,1h-4.2c-0.2,0-0.4,0-0.5,0
			c-2.4-0.4-2.1-1.9-1.4-3.6C125.7,149,127.8,149.4,130.1,149.1L130.1,149.1z"/>
		<path class="st46" d="M249.6,72.9c0.4,0.9,1.4,1.5,1.3,2.6c-1.1,0.6-0.3,1.9-0.8,2.7c-2.5-1.3-2.9-3.1-1.2-5.3
			C249.2,72.7,249.4,72.7,249.6,72.9L249.6,72.9z"/>
		<path class="st47" d="M143.8,79.8c-0.2-1,0.3-2.1-0.7-2.8c0.1-0.5,0.7-1.4,0.9-1c1.6,3.1,5,1.7,7.2,3.1
			C148.6,78.7,146.2,78.9,143.8,79.8L143.8,79.8z"/>
		<path class="st48" d="M104.9,62.8c0.1-0.2,0.2-0.5,0.4-0.5c3.3-0.9,2.6-3.8,3-6.1c1.2,2,0.8,4.3,0.4,6.2
			C108.3,64,106.2,62.6,104.9,62.8L104.9,62.8z"/>
		<path class="st41" d="M227,113.8c0.2,3.7-1.3,6.6-3.7,9.3C224.1,119.8,225.7,116.9,227,113.8z"/>
		<path class="st49" d="M206,149.3c-1.3-0.2-0.6-1.1-0.6-1.7c-0.1-2.8,0.4-5.7-0.3-8.5c-0.3-1.3,0-1.4,1.1-1.1
			C206.1,141.7,206,145.5,206,149.3L206,149.3z"/>
		<path class="st50" d="M180.1,134.6c1.3,0,0.7,0.7,0.5,1.3c-0.8,1.4-0.5,2.7,0.8,3.8c-1.4,0.5-2.3-0.1-2.8-1.3
			C178.8,137,179,135.6,180.1,134.6L180.1,134.6z"/>
		<path class="st51" d="M205.4,128.5c0.3-2.7-0.6-5.4,0.6-8c0.1,4,0.1,7.9,0.2,11.9C204.5,131.4,205.9,129.8,205.4,128.5z"/>
		<path class="st35" d="M65.3,78.3c0,0.4,0,0.8,0,1.3c-0.9-0.2-1.8-0.5-2.7-0.7c-0.3-0.6-0.5-1.3,0-1.9c0.9-1.6,1.8-1.6,2.7,0
			C65.8,77.4,65.4,77.8,65.3,78.3z"/>
		<path class="st52" d="M226.9,80.8c-0.2,1,0.3,2.3-0.9,3.1c-0.5,0.3-1,0.1-1-0.4c-0.2-1.2-0.5-2.4,0.7-3.4c0.3-0.2,0.4-0.5,0.6-0.8
			C226.9,79.7,226.9,80.2,226.9,80.8L226.9,80.8z"/>
		<path class="st53" d="M137.5,72.3c0.2,0.2,0.2,0.5-0.1,0.8c-0.2,0.2-0.5,0.3-0.8,0.4c-0.7,0.1-6-0.6-4.1-1.9
			c0.3-0.2,0.6-0.2,0.9-0.2C133.8,71.3,136.8,71.6,137.5,72.3z"/>
		<path class="st54" d="M172.1,63.5c2.4,0.3,4.2,2.4,6.7,2.1C175.9,67.1,173.7,66.3,172.1,63.5z"/>
		<path class="st55" d="M233.6,97.5c0.3,1,0.3,2-0.8,2.5c-0.5,0.2-0.9-0.1-1-0.5c-0.5-1.3-0.3-2.3,1-3
			C233.1,96.7,233.4,97.1,233.6,97.5L233.6,97.5z"/>
		<path class="st35" d="M56.6,75.6c-0.2,3.2-2.2,1.2-3.6,1.2c0.3-0.8,0.7-1.6,1.5-1.9C55.4,74.6,56.1,74.9,56.6,75.6L56.6,75.6z"/>
		<path class="st56" d="M102.2,55.6c1.6,2.6-1.7,1.4-2,2.6c-0.7-0.5-1.1-1.5-2.1-1.4C99.1,55.2,101,56.8,102.2,55.6z"/>
		<path class="st57" d="M125.7,151.3c1.8,1.7,4.2-0.2,6.1,0.9c-2.5,0.8-5,1-7.5-0.2C124.3,150.7,124.9,150.9,125.7,151.3
			L125.7,151.3z"/>
		<path class="st58" d="M27.8,56.2c-0.2-0.2-0.4-0.4-0.7-0.6c1.9,0,3.8,0,5.6-0.1c1.7-0.1,1.9,0.7,1.5,2
			C32.5,55.5,30,56.4,27.8,56.2L27.8,56.2z"/>
		<path class="st59" d="M120.9,55.7c-1.5,0.5-2.3,3.6-4.6,1.3C117.6,55.6,119.1,55.2,120.9,55.7z"/>
		<path class="st27" d="M125.7,151.3c-0.5,0-1,0.1-1.3,0.6c-0.5,0-1-0.1-1.4-0.6c0.6-1.4-1.2-2.8,0.1-4.1c0.2,0.2,0.4,0.4,0.6,0.5
			C123.2,149.6,124.3,150.5,125.7,151.3z"/>
		<path class="st60" d="M100.2,152.4c1.8-1.5,4.2,0.2,6-1.1c0.2,0.4,0.4,0.8,0.6,1.1C104.6,152.8,102.4,152.8,100.2,152.4z"/>
		<path class="st61" d="M210.1,103.8c-1.4-2.6-4.4-0.4-6-2.1c1.4,0,2.9,0.3,4.2,0C210.4,101.2,210.4,102.3,210.1,103.8L210.1,103.8z
			"/>
		<path class="st62" d="M96.8,57c-0.1,0.9,0.9,1.6,0.4,2.8c-1-0.7-2.1-1-3.2-0.4C94.5,58.1,95.7,57.6,96.8,57z"/>
		<path class="st63" d="M223.8,72.9h-6.9c0-0.2,0-0.4,0-0.6c2.1,0,4.3,0,6.4,0C223.4,72.5,223.6,72.7,223.8,72.9L223.8,72.9z"/>
		<path class="st64" d="M210.1,73c-0.7,0-1.5-0.1-2,0.6c-1.5-0.9-3.1-0.6-4.7-0.7c2-1.4,4.3-0.3,6.5-0.7C210,72.5,210,72.7,210.1,73
			z"/>
		<path class="st47" d="M141.7,75.6c0-0.2,0-0.4,0-0.6c1-1.4,2.4-2.2,4-2.6C145.4,74.7,143.1,74.6,141.7,75.6L141.7,75.6z"/>
		<path class="st65" d="M55.3,79.6c0.4-0.2,0.9-0.5,1.3-0.7c0.3-0.4,0.7-0.9,1.3-0.6c0.3,0.1,0.3,0.5,0.2,0.8
			c-1.3,0.9-2.7,1.8-4,2.7c0-0.5-0.1-1-0.1-1.5C53.9,79.1,54.5,79.2,55.3,79.6L55.3,79.6z"/>
		<path class="st35" d="M58,79.1c-0.4-0.8-0.9-0.3-1.4-0.2c1.2-3.1,3.2,0.1,4.7-0.7c0.6-0.2,0.7,0,0.7,0.6L58,79.1L58,79.1z"/>
		<path class="st66" d="M56.6,75.6c-0.7-0.2-1.4-0.5-2-0.7c0.3-0.7,0.8-1,1.5-1.3c0.8,0.5,1.9,0.7,1.9,2
			C57.5,75.6,57.1,75.6,56.6,75.6z"/>
		<path class="st67" d="M249.6,72.9c-0.2,0-0.5,0-0.7,0c-1.8,0.1-3.7-0.4-5.4,0.7c0-0.6,0-1.2,0.7-1.4c1.8,0,3.5,0.1,5.3,0.2
			c0.1,0,0.2,0.1,0.2,0.2C249.7,72.7,249.7,72.8,249.6,72.9L249.6,72.9z"/>
		<path class="st68" d="M116.3,73.6c-0.2,0-0.4,0-0.6,0c-0.1-0.5-0.2-1.1,0.4-1.4c1.6,0.1,3.2,0.1,5.2,0.2
			C119.5,73.5,117.6,72.2,116.3,73.6L116.3,73.6z"/>
		<path class="st62" d="M98.8,63.6c0.8-0.5,1.5-0.3,2.3,0.1c-0.7,1.1-1.5,2.2-2.3,3.3c-0.3-0.3-0.4-0.6-0.5-0.9
			C98.1,65.1,98.1,64.3,98.8,63.6z"/>
		<path class="st69" d="M152.5,129.9c-1.3-0.1-2.6,3.3-4,0.1C149.8,129.6,151.1,129.5,152.5,129.9z"/>
		<path class="st57" d="M104.9,123.1c1-1,2.2-0.4,3.7-0.6c-0.8,0.7-1.3,1.1-1.8,1.5C106.2,123.6,105.5,123.4,104.9,123.1z"/>
		<path class="st70" d="M90.8,70.9c-0.2,0-0.4,0-0.6,0c0.1-1.6-0.3-3.3,0.5-4.8C90.5,67.8,91.5,69.3,90.8,70.9z"/>
		<path class="st71" d="M75.5,78.2c-1.6,0.2-2.4-0.2-1.5-1.9C75,76.5,75.4,77.3,75.5,78.2z"/>
		<path class="st72" d="M100.7,72.1c0.2,1.5-0.9,0.7-1.4,0.7c-1.3,0-1.1-1.1-1.2-1.9c0.2-0.3,0.4-0.3,0.6,0
			C99,72,99.8,72.1,100.7,72.1z"/>
		<path class="st36" d="M187.3,133.4c1.3-1,2.7-2.2,3.9,0C190,133.2,188.7,133.1,187.3,133.4z"/>
		<path class="st73" d="M98.8,70.9c-0.2,0-0.4,0-0.6,0c0-0.4,0-0.9,0-1.3c-0.5-0.7-0.5-1.4,0-2c0-0.4,0-0.9,0-1.3
			c0.2-0.2,0.3-0.2,0.5,0c0.1,0.2,0.1,0.5,0.2,0.7C98.8,68.3,98.8,69.6,98.8,70.9z"/>
		<path class="st74" d="M62,78.8c-0.2-0.2-0.4-0.4-0.7-0.6c-0.7-1.6,0.5-1.3,1.4-1.3c0.4,0.6,0.5,1.3,0,1.9
			C62.4,78.8,62.2,78.8,62,78.8z"/>
		<path class="st65" d="M52.9,83.8c-1.1-0.6-0.3-1.4-0.1-2c0.3-0.8,0.9-0.1,1.3,0C53.7,82.4,53.3,83.1,52.9,83.8z"/>
		<path class="st75" d="M51.8,75.6c-0.7,0.4-1.6,0.6-1.6-0.5c-0.1-1.1,1-0.7,1.6-0.8C51.8,74.7,51.8,75.2,51.8,75.6z"/>
		<path class="st50" d="M180.6,135.9c1.3,0,2,0.8,2,2.1c0,0.2,0,0.4-0.1,0.6C181.1,138.2,181.5,136.6,180.6,135.9L180.6,135.9z"/>
		<path class="st76" d="M155.8,72.2c-1,0.1-1.9,0.1-2.1-1.2C154.8,70.8,155.6,71,155.8,72.2z"/>
		<path class="st77" d="M148.5,71c-0.2,1.4-1.2,1.3-2.2,1.2C146.5,70.8,147.5,70.9,148.5,71z"/>
		<path class="st78" d="M199.3,108.4c1-0.1,2-0.1,2.1,1.3C200.3,109.9,199.5,109.6,199.3,108.4z"/>
		<path class="st79" d="M93.6,125.9c0.9,1.3,0.9,2.6,0,3.9C93.3,128.5,93.3,127.2,93.6,125.9z"/>
		<path class="st19" d="M106.2,148.7c-0.4,1.5-1,1.6-2.1,0.5C104.8,149,105.5,148.8,106.2,148.7z"/>
		<path class="st80" d="M217.4,151.3c1.2-0.1,2.5-0.7,3.4,0.6C219.6,152.1,218.3,152.9,217.4,151.3z"/>
		<path class="st81" d="M104.8,119.3c-1.1,0.8-2.2,0.8-3.3,0C102.7,119.3,103.7,119.3,104.8,119.3z"/>
		<path class="st82" d="M201.5,70.9c-0.2,0-0.5,0-0.7,0c0.1-1.1-0.4-2.4,0.6-3.3C201.4,68.7,201.4,69.8,201.5,70.9z"/>
		<path class="st83" d="M137.5,141.2c-0.7-1.1-0.8-2.2,0-3.2C137.6,139,137.5,140.1,137.5,141.2z"/>
		<path class="st60" d="M93.4,146c0.5-0.7,1-0.3,1.1,0.2c0.3,0.7-0.3,0.9-0.9,1C93.6,146.8,93.5,146.4,93.4,146L93.4,146z"/>
		<path class="st84" d="M108.3,56.2c-1.1-0.1-2.4,0.4-3.4-0.6C106.1,55.6,107.3,54.9,108.3,56.2z"/>
		<path class="st85" d="M97.5,129.2c-1-1.1-1-2.2,0-3.3C97.5,126.9,97.5,128.1,97.5,129.2z"/>
		<path class="st24" d="M163.7,80.3c-2.6,0.3-0.6-1.6-1.1-2.3C163.4,78.6,163.4,79.5,163.7,80.3z"/>
		<path class="st86" d="M245.9,83.3c-0.4-0.2-1.4-0.3-1-0.7c0.7-1,0-2.9,1.5-3.3c0.8-0.2,1.3,0.8,1.1,1.6
			C247.3,81.8,247.6,83.2,245.9,83.3L245.9,83.3z"/>
		<path class="st87" d="M193.6,74.7c3-0.7,6.1-0.2,9.1,0c0.6,0,1.3,0.8,0.9,1.8c-0.3,0.7-0.7,0.8-1.5,0.8
			C198.9,77.5,196.4,75.6,193.6,74.7L193.6,74.7z"/>
		<path class="st88" d="M197,72.9c-2.2,0.6-1.6-1-1.8-2.1c-0.1-0.9-0.2-1.8,0.9-1.6c1.4,0.2,2.9,1,3.1,2.6
			C199.3,73.3,197.8,72.7,197,72.9z"/>
		<path class="st89" d="M188.8,72.4h3.8C191.3,73.1,190,72.9,188.8,72.4z"/>
		<path class="st90" d="M65.3,78.3c-0.7-0.4-0.1-0.9,0-1.3c1.6-2.2-0.4-2.2-1.6-2.7c-1.2-0.5-2.5,1.1-3.7,0c0.8-0.5-0.5-1.6,0.7-2
			c0.9,0.7,1.8,0.7,2.7,0c0.7,0.2,1.3,0.4,2,0.7c0.8,0.7,1.8,1.4,2.3,2.3c0.5,0.9,1,2.2,0.4,3.1C67.3,79.5,66.3,78.1,65.3,78.3
			L65.3,78.3z"/>
		<path class="st91" d="M46,72.4c1.8,0.1,3.7-0.8,5.3,0.5C49.5,72.7,47.7,73.5,46,72.4z"/>
		<path class="st92" d="M55.3,79.6c-0.5,0-1,0.1-1.3,0.7c-0.8,0-1.2-0.3-0.5-1.1C54.3,78.2,54.8,78.7,55.3,79.6L55.3,79.6z"/>
		<path class="st70" d="M98.2,67.6c0,0.7,0,1.3,0,2c-1.5,1.2,0.6,4.5-2.7,4.7c-0.7,0.1-1.3,0.1-2,0c-0.4,0-0.9,0-1.3,0
			c-1.1-0.4-2.7-1.8-2.5,1c0.1,0.9,0.7,2.2-0.7,2.4c-1.4,0.2-1.7-1.3-2-2.2c-0.3-0.8-0.1-1.7-0.1-2.6c0.2-0.3,0.4-0.3,0.7,0
			c1.6-0.6,3.1,0.2,4.7,0c1.3-0.5,2.2-1.4,2.7-2.7l0,0c1,0.1,2.2,0.7,2-1.2C96.8,68.1,97.3,67.6,98.2,67.6L98.2,67.6z"/>
		<path class="st93" d="M96.5,86.1c-2.2-2.2-1.9-4.4-0.7-6.7C97.9,81.4,98,83.5,96.5,86.1z"/>
		<path class="st12" d="M93.5,74.3c0.7-0.4,1.3-0.4,2,0c0.6,0.9,0.3,2-0.6,2.1C93.6,76.5,93.7,75.2,93.5,74.3L93.5,74.3z"/>
		<path class="st94" d="M108.3,72.2c-1.7,1.4-3.5,0.4-5.4,0.2c1.7-0.1,3.5-0.2,5.2-0.2L108.3,72.2z"/>
		<path class="st95" d="M175.1,102.9c-1-7.5-0.3-15,0.1-22.5c0.1-1.5,0.4-3.1-0.7-4.5c-0.5-0.7-0.2-1.3,0.2-1.8
			c0.4-0.5,1-0.5,1.5-0.2c0.7,0.4,0.7,0.9,0.7,1.7C176.7,84.7,174.1,93.6,175.1,102.9L175.1,102.9z"/>
		<path class="st96" d="M174.7,72.4h3.8c0,0.1,0,0.2,0,0.3h-3.8C174.7,72.6,174.7,72.5,174.7,72.4z"/>
		<path class="st97" d="M161.2,83c1.4,5,0.4,9.9,0.6,14.9c-0.4,0-0.9,0-1.3,0V85C160,84.1,159.6,83.2,161.2,83L161.2,83z"/>
		<path class="st24" d="M161.2,83c-0.8,0.5-0.7,1.3-0.7,2c-0.9,0.4-1.3,0.2-1.4-0.9c-0.2-1.4,1.4-1.9,1.4-3.1l0,0
			C162.2,81.1,161.5,82.1,161.2,83L161.2,83z"/>
		<path class="st98" d="M71.7,86c-0.4,7.1-0.8,14.1-1.3,21.5C69,99.1,69.9,87.2,71.7,86z"/>
		<path class="st99" d="M70.4,79.6c1,0,1.6,0.2,1.3,1.3c-0.2,1,0.3,2.3-1.5,2.3c-1.4,0-1.5-1.3-1.7-2.1C68.3,79.8,69.7,80,70.4,79.6
			z"/>
		<path class="st100" d="M69.5,77.9c0-0.5,0.4-0.8,0.8-0.6c0.6,0.2,1.2,0.6,1.1,1.3c0,0.1-0.7,0.3-1,0.3
			C69.8,78.9,69.4,78.5,69.5,77.9L69.5,77.9z"/>
		<path class="st101" d="M147.8,149.2c1.3,0,2.7,0.1,4,0.1c-1.1,1.2-2.9,0.3-4,1.3C147.8,150.1,147.8,149.6,147.8,149.2L147.8,149.2
			z"/>
		<path class="st102" d="M145.7,145.9c0,0.4,0.1,0.9,0.1,1.3c-0.6-0.1-1.7,0.3-1.7-0.7C144.1,145.8,145.1,146,145.7,145.9
			L145.7,145.9z"/>
		<path class="st103" d="M27.8,62.9c-0.3-0.9-1.2-1.8,0-2.7c0.7,0,1.3,0,2,0l0,0c0.9,0.7,0.9,1.3,0,2c-0.2,0.2-0.4,0.4-0.7,0.7
			C28.7,63.3,28.3,63.3,27.8,62.9L27.8,62.9z"/>
		<path class="st18" d="M29.8,60.2c-0.5-0.9-0.4-1.7,0.7-1.9c0.5-0.1,1.1,0.1,1.1,0.8C31.7,60.4,30.6,60.1,29.8,60.2L29.8,60.2z"/>
		<path class="st104" d="M135,72.9c0.9,0,1.8,0,2.7,0c-1.9,2.1,0.7,4.3,0,6.6c-2.1,0.1-0.7-2.3-2.7-3.1c0,4.6,0,8.9,0,13.3
			c0,5.5-0.2,11.1,0.1,16.6c0.2,3.2-1.1,2.4-2.8,1.5c-0.7-3.9-0.2-7.9-0.3-11.9c-0.2-6.5,0.3-13-0.3-19.5c0-0.8-0.2-1.6,0.6-2.1
			C133.4,74.1,134.5,74.2,135,72.9L135,72.9z"/>
		<path class="st105" d="M131.7,76.3c1,1,0.6,2.3,0.6,3.5c0,9.3,0,18.6,0,27.9c-0.9-0.8-0.7-1.8-0.7-2.8
			C131.7,95.4,131.7,85.9,131.7,76.3z"/>
		<path class="st106" d="M135,72.9c0.4,0.8,0.4,1.4-0.5,1.9c-1.1,0.7-1.6,0-2.2-0.6c-0.2-0.4-0.4-0.9-0.6-1.3
			C132.8,72.9,133.9,72.9,135,72.9L135,72.9z"/>
		<path class="st107" d="M87.4,72.9c-0.2,0-0.4,0-0.7,0c-1-0.2-2.2,0.5-3.1-0.5C85,72.4,86.3,71.9,87.4,72.9L87.4,72.9z"/>
		<path class="st108" d="M30.5,74.9c0,9.9,0,19.9,0,29.8c0,1.3,0.8,3.4-2,3c-1.9-2.5-1.2-5.5-0.8-8c0.6-4.1,0.4-8.2,0.5-12.2
			c0.1-6.9,0-13.7,0.1-20.6c0-0.9-0.9-2.3,0.9-2.6l0,0c1.4,0.8,0.9,2.1,1,3.2C30.3,69.9,29.7,72.4,30.5,74.9L30.5,74.9z"/>
		<path class="st10" d="M29.1,64.2c-1.1,1-0.7,2.3-0.7,3.5c0,11.9,0.2,23.8,0,35.7c0,1.4,0.7,2.9-0.1,4.3c-0.2,0-0.5,0-0.7,0
			c-1.4,0-0.9-1.1-1.1-1.9c-0.5-2.7-0.1-5.5-0.3-8.2c2-0.4,1.3-2.1,1.3-3.2c0-10.5,0-21.1,0-31.6c0.4,0,0.9,0,1.3,0
			C29.2,63.3,29.2,63.8,29.1,64.2L29.1,64.2z"/>
		<path class="st10" d="M30.5,74.9c-1.4-1.8-0.4-3.9-0.7-5.8c-0.2-1.6,0.3-3.4-0.7-4.9c1.6,0.2,1.3,1.5,1.3,2.5
			C30.5,69.5,30.5,72.2,30.5,74.9z"/>
		<path class="st109" d="M94.8,70.2c-2.3-0.4-4-1.2-3.2-4c0.8,1.2,2.1,1.6,3.3,2.1C96.6,69.1,95.1,69.6,94.8,70.2L94.8,70.2z"/>
		<path class="st110" d="M98.7,66.2c-0.2,0-0.3,0-0.5,0c-1.4,0.3-2.6,0.3-1.8-1.6c0.5-1,1-2.3,2.4-2.4c0,0.4,0,0.9,0,1.3
			C98.8,64.5,98.7,65.4,98.7,66.2L98.7,66.2z"/>
		<path class="st62" d="M99.5,60.9c0,0.5-0.1,1-0.7,1.3c-0.1-0.6-0.8-1-0.3-1.6C98.9,60.2,99.3,60.5,99.5,60.9z"/>
		<path class="st3" d="M63.3,72.3c-0.9,1.6-1.8,1.6-2.7,0C61.5,72.3,62.4,72.3,63.3,72.3z"/>
	</g>
</g>
</svg>
